<svg xmlns="http://www.w3.org/2000/svg" width="24" height="24" viewBox="0 0 24 24">
  <title>
    home
  </title>
  <path fill="#ABAEB1" d="M15.6786588,19.9606392 L20,19.9959031 L20,10.1969557 L12.4998832,4.14258299 L5,10.1969511 L5,19.9956506 L9.01359748,19.9608875 L9.01359748,12.9050542 C9.01359748,12.6289118 9.23745511,12.4050542 9.51359748,12.4050542 L15.1786588,12.4050542 C15.4548012,12.4050542 15.6786588,12.6289118 15.6786588,12.9050542 L15.6786588,19.9606392 Z M10.0135975,13.4050542 L10.0135975,20.4565756 C10.0135975,20.7310283 9.79237039,20.9541798 9.51792798,20.9565569 L4.5043305,20.9999812 C4.22650584,21.0023876 4,20.7778351 4,20.5 L4,9.95799512 C4,9.8068766 4.06834679,9.66386537 4.18593286,9.56894265 L12.1858113,3.11094752 C12.3690583,2.96301924 12.6306906,2.9630173 12.8139398,3.11094286 L20.8140614,9.56893798 C20.9316509,9.66386059 21,9.806874 21,9.95799512 L21,20.5 C21,20.7777371 20.7736478,21.0022497 20.4959199,20.9999834 L15.1745787,20.956559 C14.9000375,20.9543186 14.6786588,20.731126 14.6786588,20.4565756 L14.6786588,13.4050542 L10.0135975,13.4050542 Z"/>
</svg>
