<svg xmlns="http://www.w3.org/2000/svg" width="70" height="70" viewBox="0 0 70 70">
  <title>
    icon-on-time
  </title>
  <path fill-rule="evenodd" d="M42.5064542,17.4846016 C50.8230764,20.4887741 56.8074609,28.5883171 56.8074609,38.1094774 C56.8074609,50.1798132 47.2067642,60 35.4032327,60 C23.6016921,60 14,50.1798132 14,38.1094774 C14,28.5883171 19.9853799,20.4887741 28.3000112,17.4846016 C28.2313282,17.2481621 28.1825533,17.0017882 28.1825533,16.7424995 L28.1825533,12.6127558 C28.1825533,11.1722631 29.3292617,10 30.737762,10 L40.0677081,10 C41.4772038,10 42.6239122,11.1722631 42.6239122,12.6127558 L42.6239122,16.7424995 C42.6239122,17.0017882 42.5761327,17.2471687 42.5064542,17.4846016 Z M31.2503964,16.0381482 L39.5580599,16.0381482 L39.5580599,12.9545003 L31.2503964,12.9545003 L31.2503964,16.0381482 Z M51.8284371,38.5674548 C51.8284371,29.5132128 44.4743731,22.1756408 35.4042281,22.1756408 C26.3330878,22.1756408 18.9800192,29.5132128 18.9800192,38.5674548 C18.9800192,47.6207034 26.3330878,54.9592688 35.4042281,54.9592688 C44.4743731,54.9592688 51.8284371,47.6207034 51.8284371,38.5674548 Z M37.531412,51.6671965 L37.531412,49.8899265 C37.531412,49.0236439 36.8455769,48.322273 35.9984859,48.322273 C35.1513949,48.322273 34.4655597,49.0236439 34.4655597,49.8899265 L34.4655597,51.8132327 C28.2582042,51.3552553 23.2523044,46.4257898 22.5266529,40.1591496 L24.3562103,40.1591496 C25.2033013,40.1591496 25.8891364,39.4567852 25.8891364,38.5895092 C25.8891364,37.7252136 25.2033013,37.0238426 24.3562103,37.0238426 L22.5266529,37.0238426 C23.288139,30.4442678 28.7688477,25.3200874 35.4042281,25.3200874 C42.0396085,25.3200874 47.5193219,30.4442678 48.2818033,37.0238426 L46.4512506,37.0238426 C45.6041596,37.0238426 44.9183244,37.7252136 44.9183244,38.5895092 C44.9183244,39.4567852 45.6041596,40.1591496 46.4512506,40.1591496 L48.2818033,40.1591496 C47.602936,46.018478 43.1793491,50.7085237 37.531412,51.6671965 Z M43.9189362,44.6490165 L36.9709981,38.9873833 L36.9709981,29.2764753 C36.9709981,28.4101927 36.285163,27.7088218 35.4370766,27.7088218 C34.5909809,27.7088218 33.9051458,28.4101927 33.9051458,29.2764753 L33.9051458,39.7424002 C33.9051458,40.2202464 34.1181628,40.6712696 34.4824816,40.9693026 L42.0087509,47.1028214 C42.290451,47.3323068 42.6268984,47.4435724 42.9623505,47.4435724 C43.4132697,47.4435724 43.8602072,47.2419034 44.1618154,46.8524737 C44.6913717,46.1759388 44.581877,45.1884562 43.9189362,44.6490165 Z"/>
</svg>
