<svg xmlns="http://www.w3.org/2000/svg" width="70" height="70" viewBox="0 0 70 70">
  <title>
    icon-australia
  </title>
  <path fill-rule="evenodd" d="M51.417597,54.7545246 C50.3041104,54.9439391 49.2544435,54.8521523 48.2014178,54.4374432 C47.5774958,54.1912878 47.0333485,54.6085003 47.1190013,55.2693648 C47.2424421,56.2239469 47.3902352,57.1910453 47.6841419,58.1014029 C47.8520886,58.6179119 48.2711156,59.1077193 48.6960208,59.4698597 C48.8832813,59.6292348 49.0780995,59.8829 49.3619294,59.9821966 C49.5852985,60.0597981 50.0219599,59.8778935 50.2327331,59.5499645 C50.8843662,58.5353038 51.8903669,59.2746043 52.1246526,58.3266976 C52.3161118,57.5548546 52.410162,56.7596476 52.51093,56.18306 C52.5503975,55.0565864 52.2002286,54.6218511 51.417597,54.7545246 M61.3184746,42.0788595 C59.773365,44.7022914 58.1291669,47.2689824 56.5042826,49.8456864 C55.1783434,51.950106 53.0378628,52.6118049 50.7403519,52.9130323 C50.3733884,52.961429 49.8905417,52.7811932 49.5949555,52.5425477 C49.1624927,52.1945925 48.8601887,52.3139153 48.4184889,52.4849724 C47.9440394,52.6685458 47.3553863,52.827921 46.8884945,52.7119359 C46.0504404,52.5033297 45.2317003,52.1436926 44.4667031,51.73399 C43.3607741,51.1423827 42.7494481,50.1469138 42.4026382,48.9545206 C42.1288851,48.0141238 41.8778048,47.93986 41.0153985,48.3854429 C40.0975698,48.8577273 39.2393622,48.3203577 39.224247,47.2965184 C39.2217278,47.1154482 39.0017176,46.7900225 38.8707192,46.7841815 C38.0603764,46.7491356 37.6808168,46.2134349 37.3298082,45.6126489 C36.9536076,44.9684729 36.6487844,44.2633839 36.1776939,43.6976438 C35.421094,42.7864518 35.1145913,43.52909 33.9817908,43.4356344 C31.9177259,43.2654117 29.8780133,43.5132359 27.9667799,44.2884166 C27.2194171,44.5921473 26.5627455,45.2321512 26.0009638,45.8412814 C25.3098632,46.5897605 23.7655933,46.0982842 22.726843,46.1800579 C21.1506632,46.3043872 19.8272432,47.08374 18.454279,47.7646307 C17.5960714,48.1910219 16.6849606,48.5998901 15.7520167,48.7659406 C14.3891292,49.0079238 13.3428213,48.1726645 13.0262418,46.8317437 C12.9934922,46.6907259 12.9321916,46.5405294 12.9515055,46.4053526 C13.3764106,43.3905755 11.5407532,41.1851905 10.1837439,38.8187615 C9.77731292,38.1111692 9.23232589,37.4770063 8.71756927,36.8353335 C8.43541882,36.4848751 8.349766,36.1586149 8.62183965,35.7881303 C9.04926399,35.2057017 8.95857278,34.6082535 8.6982554,33.9999577 C8.60252578,33.7788351 8.50931536,33.5543748 8.40602814,33.3365899 C7.36139969,31.1111788 8.5252703,29.2337227 9.72189051,28.020469 C11.0142403,26.7112563 12.6105737,25.9377444 14.2850023,25.2409996 C15.4429947,24.758702 16.5783144,24.1862866 17.6338594,23.5129057 C18.0646427,23.2392143 18.3165627,22.6200711 18.5390921,22.1102374 C18.7389486,21.6521382 18.7733777,21.1247816 18.9043761,20.6349742 C19.1151492,19.8414362 19.5543299,19.2823715 20.3848263,18.9894883 C21.0230237,18.7633592 21.5008321,18.3836959 21.8711545,17.6702626 C22.2893418,16.8608704 23.1517481,16.255078 23.8865149,15.6376036 C25.3988749,14.3676089 26.0211174,14.3375696 27.7467697,15.2996615 C27.938229,15.4056334 28.1380855,15.4940825 28.3312242,15.5958823 C28.7569691,15.8203426 28.9484283,15.6926756 29.1298108,15.237914 C29.4018844,14.5528512 29.8141936,13.9253637 30.1358115,13.2586582 C30.3197131,12.8789949 30.5220889,12.482643 30.5833894,12.0746093 C30.7513361,10.9614865 31.1997538,10.5242478 32.3182788,10.6085247 C33.5014633,10.6969738 34.6812888,10.8221375 35.8569157,10.9806782 C36.1776939,11.0240683 36.5723686,11.1634173 36.7629881,11.3962218 C37.2298799,11.9669685 37.7547134,11.9652996 38.3870327,11.8067589 C38.927821,11.671582 39.4870835,11.5973182 40.0413076,11.5297298 C40.8029459,11.4362742 41.2034988,11.8793538 41.0338726,12.6178199 C40.9818091,12.8506244 40.8869193,13.0792568 40.783632,13.2962073 C40.5955317,13.6925591 40.5720192,14.0113094 40.8701246,14.4218465 C41.4873287,15.2696222 41.2841132,15.8854277 40.1068069,16.8458508 C40.5291928,17.1904683 40.8634067,17.5450989 41.2681583,17.7779034 C42.299351,18.3711795 43.3708509,18.8926951 44.4062423,19.4784613 C44.8538202,19.7304577 45.1334515,19.5527251 45.2871227,19.187247 C45.6725604,18.2802272 46.0907476,17.3740418 46.338469,16.4269695 C46.8213158,14.5828905 47.1756833,12.7054345 47.6358573,10.8546801 C47.7181511,10.5209101 48.0263333,10.027765 48.2723752,10.0027323 C48.591474,9.96935527 49.0894359,10.2472188 49.2682991,10.538433 C49.6789288,11.2101451 49.9736753,11.9586242 50.2558257,12.6987591 C50.4430863,13.1919042 50.532098,13.7242673 50.6572183,14.2407763 C50.7789797,14.7481066 51.0258613,15.0643537 51.5918417,15.2053715 C52.4777605,15.4256596 52.8119744,16.1674634 53.0101515,16.9793588 C53.2100081,17.8004329 53.4384156,18.615666 53.6197981,19.4409122 C54.0648568,21.4693991 55.1422349,23.1015342 56.6193261,24.5500958 C57.3708875,25.286893 58.0099247,26.1730522 58.5507131,27.0792377 C59.7901597,29.153618 61.0799903,31.2179851 62.0885102,33.4050128 C63.4581155,36.374731 62.936641,39.3310984 61.3184746,42.0788595 Z M35.4378887,39.7299535 L43.1382447,33.541024 C43.9863755,32.8592989 44.6673994,31.9456036 45.0116901,30.8725332 C46.4258013,26.4676042 42.4043177,21.7531036 37.645548,23.6030236 C36.3590763,24.1036785 35.4378887,25.7775348 35.4378887,25.7775348 C35.4378887,25.7775348 34.5167011,24.1036785 33.2310691,23.6030236 C28.4714597,21.7531036 24.4491363,26.4676042 25.8632475,30.8725332 C26.208378,31.9456036 26.8885621,32.8592989 27.7366929,33.541024 L35.4378887,39.7299535 Z"/>
</svg>
