<svg xmlns="http://www.w3.org/2000/svg" width="70" height="70" viewBox="0 0 70 70">
  <title>
    icon-updates
  </title>
  <path fill-rule="evenodd" d="M36.2133508,54.753134 C36.9690141,54.753134 37.5218671,55.4923764 37.2820049,56.2082128 C36.5429175,58.4122866 34.4611871,60 32.009913,60 C29.5576639,60 27.4769086,58.4122866 26.7368461,56.2082128 C26.4969839,55.4923764 27.0498369,54.753134 27.8055002,54.753134 L36.2133508,54.753134 Z M47.2826962,43.5857941 L52.9906351,48.2553098 C54.2386983,49.7796316 53.0315872,51.9339675 50.9284057,51.9339675 L44.4228764,51.9339675 L19.4713633,51.9339675 L13.5674394,51.9339675 C11.5315363,51.9339675 10.3078494,49.8995879 11.4213558,48.363563 L16.5861922,43.5350809 L16.6134936,43.5350809 L16.6134936,30.1029088 C16.6134936,22.8860299 21.6642493,16.7965445 28.4047655,15.185425 L28.4047655,13.5733303 C28.4047655,11.6081937 30.0116469,10 31.9773464,10 C33.9420708,10 35.5509023,11.6081937 35.5509023,13.5733303 L35.5509023,15.1990786 C36.2022353,15.358045 36.8369924,15.5599225 37.4551737,15.7988597 C36.1729838,17.6908523 35.4251209,19.9729465 35.4251209,22.429611 C35.4251209,28.9686885 40.7235391,34.2691935 47.2612451,34.2691935 C47.2680704,34.2691935 47.2748958,34.2682182 47.2826962,34.2682182 L47.2826962,43.5857941 Z M58.7842809,21.9369128 C58.7842809,27.72602 54.0923434,32.4189418 48.3044504,32.4189418 C42.5146073,32.4189418 37.8236448,27.72602 37.8236448,21.9369128 C37.8236448,16.1478056 42.5146073,11.4548838 48.3044504,11.4548838 C54.0923434,11.4548838 58.7842809,16.1478056 58.7842809,21.9369128 Z M47.5751135,26.6327603 L50.1677697,26.6327603 L50.1677697,17.059668 L48.2537478,17.059668 L45.4699819,17.8466979 L45.9721323,19.8840033 L47.5751135,19.5036543 L47.5751135,26.6327603 Z"/>
</svg>
