<svg xmlns="http://www.w3.org/2000/svg" width="70" height="70" viewBox="0 0 70 70">
  <title>
    icon-invoicing
  </title>
  <path fill-rule="evenodd" d="M48.8088113,10 C50.9940604,10 52.7826087,11.8093202 52.7826087,14.0187502 L52.5789237,55.9841917 C52.5789237,58.1936218 50.7903754,60 48.6051263,60 L21.9737974,60 C19.7875784,60 18,58.1936218 18,55.9841917 L18,14.1609461 C18,11.9515161 19.7875784,10.1431766 21.9737974,10.1431766 L48.8088113,10 Z M41.0581121,20.5166124 C41.0581121,19.730122 40.4228088,19.0877888 39.6458961,19.0877888 L31.4422401,19.0877888 C30.6653274,19.0877888 30.0290542,19.730122 30.0290542,20.5166124 C30.0290542,21.3011415 30.6653274,21.9444553 31.4422401,21.9444553 L39.6458961,21.9444553 C40.4228088,21.9444553 41.0581121,21.3011415 41.0581121,20.5166124 Z M46.1667259,26.5329698 C46.1667259,25.7484407 45.5314227,25.1051269 44.7535399,25.1051269 L26.3336263,25.1051269 C25.5567135,25.1051269 24.9204404,25.7484407 24.9204404,26.5329698 C24.9204404,27.3194602 25.5567135,27.9617934 26.3336263,27.9617934 L44.7535399,27.9617934 C45.5314227,27.9617934 46.1667259,27.3194602 46.1667259,26.5329698 Z M46.1667259,32.5512886 C46.1667259,31.7657788 45.5314227,31.1234457 44.7535399,31.1234457 L26.3336263,31.1234457 C25.5567135,31.1234457 24.9204404,31.7657788 24.9204404,32.5512886 C24.9204404,33.3387597 25.5567135,33.9801122 26.3336263,33.9801122 L44.7535399,33.9801122 C45.5314227,33.9801122 46.1667259,33.3387597 46.1667259,32.5512886 Z M46.1667259,38.570588 C46.1667259,37.7840976 45.5314227,37.1427451 44.7535399,37.1427451 L26.3336263,37.1427451 C25.5567135,37.1427451 24.9204404,37.7840976 24.9204404,38.570588 C24.9204404,39.3560978 25.5567135,39.9994116 26.3336263,39.9994116 L44.7535399,39.9994116 C45.5314227,39.9994116 46.1667259,39.3560978 46.1667259,38.570588 Z M47.4043547,43.4317264 C46.830157,43.1051661 46.1114399,43.3189503 45.7942733,43.9093084 L42.1648006,50.7062723 L41.0474428,49.0283607 C40.6759602,48.4703644 39.9388145,48.3301298 39.3995342,48.7135684 C38.8621938,49.0989683 38.7264038,49.8619229 39.0978864,50.4208999 L41.2996243,53.7306319 C41.520768,54.0630761 41.8864311,54.2601891 42.2744025,54.2601891 C42.2938011,54.2601891 42.3131996,54.2592084 42.3325982,54.2582277 C42.7419081,54.2366532 43.1124208,53.9983525 43.3102862,53.6266818 L47.8660407,45.0988507 C48.1822375,44.5065312 47.9756427,43.7602479 47.4043547,43.4317264 Z"/>
</svg>
