<svg xmlns="http://www.w3.org/2000/svg" width="70" height="70" viewBox="0 0 70 70">
  <title>
    icon-fast-order
  </title>
  <path fill-rule="evenodd" d="M23.2811585,26.648268 L16.1029015,26.648268 C15.5669453,26.648268 15.1283587,26.2100833 15.1283587,25.6737724 C15.1283587,25.1383073 15.5669453,24.6992767 16.1029015,24.6992767 L23.2811585,24.6992767 C23.8179614,24.6992767 24.256548,25.1383073 24.256548,25.6737724 C24.256548,26.2100833 23.8179614,26.648268 23.2811585,26.648268 Z M30.0298885,24.3505054 L21.2522298,24.3505054 C20.7162736,24.3505054 20.277687,23.9123208 20.277687,23.3760098 C20.277687,22.8405448 20.7162736,22.4015142 21.2522298,22.4015142 L30.0298885,22.4015142 C30.5666914,22.4015142 31.005278,22.8405448 31.005278,23.3760098 C31.005278,23.9123208 30.5666914,24.3505054 30.0298885,24.3505054 Z M14.1527998,35.9244174 L6.9745428,35.9244174 C6.43858659,35.9244174 6,35.4862327 6,34.9499218 C6,34.4144567 6.43858659,33.9754261 6.9745428,33.9754261 L14.1527998,33.9754261 C14.6896027,33.9754261 15.1281893,34.4144567 15.1281893,34.9499218 C15.1281893,35.4862327 14.6896027,35.9244174 14.1527998,35.9244174 Z M23.5151842,33.5084803 L11.6953602,33.5084803 C11.1585573,33.5084803 10.7199707,33.0702956 10.7199707,32.5339847 C10.7199707,31.9985196 11.1585573,31.5594891 11.6953602,31.5594891 L23.5151842,31.5594891 C24.0519871,31.5594891 24.4905737,31.9985196 24.4905737,32.5339847 C24.4905737,33.0702956 24.0519871,33.5084803 23.5151842,33.5084803 Z M15.7911494,47.2269594 L8.61289233,47.2269594 C8.07693613,47.2269594 7.63834954,46.7887747 7.63834954,46.2524637 C7.63834954,45.7169987 8.07693613,45.2779681 8.61289233,45.2779681 L15.7911494,45.2779681 C16.3279523,45.2779681 16.7665389,45.7169987 16.7665389,46.2524637 C16.7665389,46.7887747 16.3279523,47.2269594 15.7911494,47.2269594 Z M24.841443,49.5069577 L12.7091895,49.5069577 C12.1723866,49.5069577 11.7338,49.068773 11.7338,48.532462 C11.7338,47.996997 12.1723866,47.5579664 12.7091895,47.5579664 L20.3751413,47.5579664 L24.841443,47.5579664 C25.3782459,47.5579664 25.8168325,47.996997 25.8168325,48.532462 C25.8168325,49.068773 25.3782459,49.5069577 24.841443,49.5069577 Z M63.2770384,27.882037 C64.6579935,29.2617265 64.6579935,31.5186313 63.2770384,32.8974749 L56.2461059,39.6969505 L36.9279751,58.9652328 C35.54702,60.3449224 33.2880451,60.3449224 31.9079367,58.9652328 L20.4902914,47.558051 L21.9152745,47.558051 L25.0167083,47.558051 C25.5535112,47.558051 25.9929445,47.1198663 25.9929445,46.5844013 C25.9929445,46.0480903 25.5535112,45.6099057 25.0167083,45.6099057 L21.9347485,45.6099057 L18.5225786,45.5515375 L15.0841613,42.1568752 C13.7032062,40.7780316 13.7032062,38.5211268 15.0841613,37.1414372 L16.9824454,35.3447109 L20.2777717,35.4563719 L23.0075076,35.4563719 C23.5451571,35.4563719 23.9837437,35.0181872 23.9837437,34.4827222 C23.9837437,33.9464112 23.5451571,33.5082265 23.0075076,33.5082265 L20.199876,33.5082265 L18.7198579,33.5082265 L26.1893771,26.0455526 L29.9131297,26.0650087 L32.0586479,26.0650087 C32.5954508,26.0650087 33.2685711,25.8611428 33.2685711,25.3248319 L33.2685711,25.091359 C33.2685711,24.555048 32.5954508,24.3503363 32.0586479,24.3503363 L29.9131297,24.3503363 L27.8861484,24.3503363 L41.2139314,11.0347672 C42.5940398,9.65507761 44.8530147,9.65507761 46.2339698,11.0347672 L58.7565484,23.5027281 L63.2770384,27.882037 Z M45.6158845,29.7498202 C46.106966,29.2591888 46.106966,28.4572601 45.6158845,27.9666286 L40.4341278,22.7887747 C39.9421996,22.2981432 39.1386886,22.2981432 38.6476071,22.7887747 C38.158219,23.2794062 38.158219,24.0813349 38.6476071,24.5719663 L43.8302105,29.7498202 C44.321292,30.2404517 45.1256496,30.2404517 45.6158845,29.7498202 Z M48.3092126,39.954955 C48.8002941,39.4643235 48.8002941,38.6615489 48.3092126,38.1717633 L36.6739674,26.5454892 C36.1828859,26.0548577 35.379375,26.0548577 34.8882934,26.5454892 C34.3980586,27.0361206 34.3980586,27.8388952 34.8882934,28.3286808 L46.525232,39.954955 C47.0163135,40.4455864 47.818131,40.4455864 48.3092126,39.954955 Z M44.5498989,43.7116694 C45.0409804,43.2210379 45.0409804,42.4182633 44.5498989,41.9284778 L32.9129604,30.3022036 C32.4227256,29.8115721 31.6183679,29.8115721 31.1281331,30.3022036 C30.6370516,30.7928351 30.6370516,31.5956097 31.1281331,32.0853953 L42.7642249,43.7116694 C43.2561531,44.2023009 44.0588174,44.2023009 44.5498989,43.7116694 Z M40.7888918,47.4683839 C41.2808201,46.9777524 41.2808201,46.1758237 40.7888918,45.6851922 L29.1528,34.0589181 C28.6625652,33.5682866 27.8582076,33.5682866 27.367126,34.0589181 C26.8768912,34.5495495 26.8768912,35.3523242 27.367126,35.8429556 L39.0049112,47.4683839 C39.4942994,47.9590154 40.2978103,47.9590154 40.7888918,47.4683839 Z"/>
</svg>
