<svg xmlns="http://www.w3.org/2000/svg" width="163" height="61" viewBox="0 0 163 61">
  <title>
    logo
  </title>
  <g fill="none" fill-rule="evenodd">
    <path fill="#EF3E33" d="M107.997537,22.8823081 L118.605384,3.51702484 C120.722377,-0.153686986 128.603788,-2.25582492 132.515788,3.92572927 L147.130384,27.0163253 C151.794352,34.3862539 158.926606,29.8728401 160.977756,26.7991258 L149.923064,46.3362416 C147.589675,50.3658746 139.483837,51.499648 135.672608,45.477079 L121.609241,23.2584928 C116.04235,14.461712 108.409453,21.9556973 107.997537,22.8823081"/>
    <path fill="#000" d="M161.090973 31.8568645C161.316603 31.8616823 161.474384 31.8090887 161.474384 31.549734 161.474384 31.2859631 161.186525 31.2859631 160.990202 31.2859631L160.496384 31.2859631 160.496384 31.8568645 161.090973 31.8568645zM161.810421 33.0223547L161.34551 33.0223547 160.894249 32.1591773 160.496384 32.1591773 160.496384 33.0223547 160.097717 33.0223547 160.097717 30.9840517 161.081337 30.9840517C161.253973 30.9840517 161.479603 30.9888695 161.633369 31.0848227 161.81564 31.2044631 161.87265 31.4011872 161.87265 31.6119631 161.87265 31.9817241 161.676328 32.1350887 161.316603 32.1591773L161.810421 33.0223547zM162.400594 31.9913596C162.400594 31.1470517 161.719286 30.4657438 160.875379 30.4657438 160.026254 30.4657438 159.340128 31.1470517 159.340128 31.9913596 159.340128 32.8449015 160.026254 33.5262094 160.875379 33.5262094 161.719286 33.5262094 162.400594 32.8449015 162.400594 31.9913596zM158.985222 31.9913596C158.985222 30.9551453 159.829931 30.1108374 160.875379 30.1108374 161.911192 30.1108374 162.7555 30.9551453 162.7555 31.9913596 162.7555 33.0368079 161.911192 33.8811158 160.875379 33.8811158 159.829931 33.8811158 158.985222 33.0368079 158.985222 31.9913596zM16.8282815 35.5809739C17.0924539 34.800501 16.9222273 34.3159172 16.5155302 33.9927276 16.1084317 33.6695379 15.4170869 33.5615404 14.6305918 33.5611389 13.4667076 33.5607374 11.8684243 33.8562251 11.4910352 35.1212818 11.0574391 36.575033 14.3989391 36.6569345 16.4003061 37.3306143 19.9477642 38.5165798 20.7226164 40.3473187 20.0401041 42.6357424 18.6586189 47.2655847 12.7548874 49.443602 7.8789391 49.441996 2.71994895 49.4399887-1.33337125 47.4193507.411451414 42.5201167L7.11171496 42.5229271C6.79856225 43.5723901 6.88889476 44.2187694 7.31084797 44.7037547 7.77977407 45.1345404 8.58192678 45.1887399 9.71409427 45.1891414 11.0666731 45.1899443 12.9106608 44.598166 13.2880499 43.3331093 13.7059884 41.9331561 11.4657421 41.7436586 8.61645388 40.8543852 6.11243664 40.0727079 3.83967063 38.8337473 4.79518787 35.6303557 6.08834797 31.2964024 11.5897987 29.3062768 16.1196731 29.3078827 20.9012741 29.3098901 24.7530524 30.8459443 23.2137864 35.5833827L16.8282815 35.5809739M33.4936814 35.1421576L36.8596715 35.1433621 34.9992232 38.4274507 31.6962651 38.4258448 29.2540755 42.9203892C28.9915089 43.3784754 28.6895976 43.8626576 28.5530952 44.3203424 28.4165927 44.7776256 28.5872208 45.1550148 29.5624104 45.1554163 30.5693168 45.1558177 31.1201444 45.1020197 31.6312257 45.0751207L29.5391247 48.9240887C28.3896937 49.0854828 27.2173784 49.2195764 26.0687503 49.2725714 24.7474868 49.27217 23.3318759 49.27217 22.3052971 48.7056847 21.3883218 48.194202 21.0884178 47.0905394 21.393541 46.0671724 21.6183686 45.3135985 21.9600262 44.8025172 22.3097134 44.1565394L25.467738 38.423436 22.6995484 38.4222315 24.5599966 35.1385443 27.2655557 35.1397488 29.6270484 30.9137931 35.8559769 30.9166034 33.4936814 35.1421576M38.8494039 35.2746454L44.8892365 35.2770543 43.7036724 37.4570789 43.7667044 37.4570789C45.3095837 35.9772316 47.6674631 34.9281701 49.2717685 34.9285715 50.3099901 34.928973 50.89133 34.9831725 51.4092365 35.1449681L48.8401798 39.8547045C48.157266 39.6126134 47.3402586 39.5046159 46.5537635 39.5042144 43.9112365 39.50301 42.3009089 40.4713745 40.7022241 43.4053745L37.543798 49.246074 31.3152709 49.2436651 38.8494039 35.2746454M54.3774137 46.4485786C56.4851724 46.449783 57.7281477 45.1309284 58.7238127 43.0584998 57.5888349 43.488884 56.3928325 43.5956771 55.2361748 43.6759727 54.1738645 43.7566697 53.0621724 44.2135515 52.7570492 45.236517 52.4679852 46.2056845 53.3709088 46.4481771 54.3774137 46.4485786zM50.4096083 39.5018077C52.4932783 35.7873348 56.1162142 34.9269678 60.1113201 34.9285737 63.0682044 34.9297781 67.9421453 35.2549751 66.9304211 38.6462584 66.2796256 40.827086 62.4266428 47.0977683 62.1536379 48.0131377 61.9581182 49.0899013 61.9769876 48.605719 62.0356034 49.2516968L55.9331403 49.249288C55.9042339 48.8185022 55.9463891 48.360416 56.1142068 47.9031328L56.0515763 47.9031328C54.6134827 49.0328914 52.3371034 49.5977707 50.5123866 49.5965663 47.7128817 49.5961648 45.5408866 48.5450958 46.3358127 45.8804875 47.4362635 42.1925121 50.9419679 41.19765 55.7175467 40.9033668 57.5109482 40.7969751 60.2466182 41.0129702 60.7605098 39.2902288 61.0495738 38.3210614 60.1153349 38.0785687 59.171862 38.0781673 57.913229 38.0777658 56.9203743 38.454352 56.2611477 39.5038151L50.4096083 39.5018077zM72.2033793 35.2746459L78.2432118 35.2766533 77.2567808 37.1069907 77.3194113 37.1069907C78.9714926 35.7885375 81.0214384 34.927769 83.0978818 34.928572 85.2369557 34.9293749 86.915936 35.5223577 86.8111502 37.2455006 88.5973251 35.7925523 90.6785862 34.9317838 92.8497783 34.9321853 96.0266724 34.9337912 97.6940099 36.1996508 96.8344458 39.0798528 96.6417365 39.7258306 96.1093768 40.6680991 95.7982315 41.2871779L91.4393867 49.2537025 85.2108596 49.2512937 88.8695271 42.5763232C89.0132562 42.3073331 89.7371207 40.9350818 89.857564 40.5311951 90.1229409 39.6427247 89.6612414 39.1846385 88.6547365 39.184237 87.4282217 39.1838355 86.3707291 39.7756139 85.8134778 40.7985794L81.1527217 49.2500892 74.9241946 49.2476804 79.0445616 41.7649365C79.2432931 41.4152493 79.5688916 40.8499685 79.6817069 40.4729809 79.9466823 39.5849119 79.5010419 39.1806237 78.4941355 39.1806237 76.9528621 39.1798208 75.9094212 40.0409907 75.2646478 41.2522493L70.8664581 49.2460745 64.637931 49.2436656 72.2033793 35.2746459M109.338874 33.8546182L103.109946 33.8522094 105.138613 30.1108374 111.366739 30.1132463 109.338874 33.8546182zM102.313815 35.3593571L108.542744 35.361766 100.976894 49.3307857 94.7487685 49.3283768 102.313815 35.3593571zM119.008925 35.1421576L122.374513 35.1433621 120.514065 38.4270493 117.210705 38.4258448 114.768516 42.9207906C114.506351 43.3780739 114.204439 43.8626576 114.067937 44.3203424 113.931033 44.7780271 114.102063 45.1546133 115.077252 45.1554163 116.083356 45.1558177 116.634986 45.1020197 117.146067 45.0755222L115.053966 48.9244901C113.904937 49.0854828 112.73222 49.2191749 111.583191 49.2729729 110.261927 49.2725714 108.846718 49.2717685 107.819737 48.7060862 106.902762 48.1938005 106.60326 47.0901379 106.908383 46.0675739 107.13321 45.3135985 107.474466 44.8025172 107.824555 44.1565394L110.982178 38.423436 108.213989 38.422633 110.074838 35.1385443 112.779996 35.1397488 115.14189 30.9137931 121.370016 30.9166034 119.008925 35.1421576M21.2783251 57.9866478L21.2783251 57.9701872C21.2783251 56.3470123 22.4911897 55.0024631 24.1802069 55.0024631 25.2212389 55.0024631 25.8443325 55.3714212 26.4180443 55.9122118L25.9756158 56.3875616C25.491835 55.9286724 24.9510443 55.600665 24.1717759 55.600665 22.9015 55.600665 21.950399 56.634069 21.950399 57.9537266L21.950399 57.9701872C21.950399 59.2978744 22.9095296 60.3393079 24.1717759 60.3393079 24.9590739 60.3393079 25.4753744 60.0357906 26.0245961 59.5114606L26.4509655 59.9298005C25.8523621 60.536032 25.1967488 60.9375099 24.1557167 60.9375099 22.4996207 60.9375099 21.2783251 59.6339113 21.2783251 57.9866478M32.8830419 57.9866478L32.8830419 57.9701872C32.8830419 56.6665887 31.9319409 55.600665 30.6203128 55.600665 29.3086847 55.600665 28.3740443 56.6501281 28.3740443 57.9537266L28.3740443 57.9701872C28.3740443 59.2733842 29.3251453 60.3393079 30.6367734 60.3393079 31.9484015 60.3393079 32.8830419 59.2902463 32.8830419 57.9866478zM27.7019704 57.9866478L27.7019704 57.9701872C27.7019704 56.3875616 28.8903448 55.0024631 30.6367734 55.0024631 32.3828005 55.0024631 33.5551158 56.3715025 33.5551158 57.9537266L33.5551158 57.9701872C33.5551158 59.5524113 32.3663399 60.9375099 30.6203128 60.9375099 28.8742857 60.9375099 27.7019704 59.5688719 27.7019704 57.9866478z"/>
    <polyline fill="#000" points="35.732 55.002 36.338 55.002 39.953 59.602 39.953 55.002 40.585 55.002 40.585 60.741 40.068 60.741 36.363 56.036 36.363 60.741 35.732 60.741 35.732 55.002"/>
    <path fill="#000" d="M42.5566502,59.9868103 L42.9585296,59.5114606 C43.5567315,60.0522512 44.1308448,60.3228473 44.9261724,60.3228473 C45.6966084,60.3228473 46.2048793,59.9133399 46.2048793,59.3476576 L46.2048793,59.331197 C46.2048793,58.7980345 45.9178227,58.4949187 44.7125862,58.2407833 C43.3929286,57.9537266 42.7862956,57.5273571 42.7862956,56.5846872 L42.7862956,56.5686281 C42.7862956,55.6665074 43.5812217,55.0024631 44.6720369,55.0024631 C45.5079138,55.0024631 46.1065172,55.2401379 46.6886601,55.7074581 L46.3112709,56.207298 C45.7785099,55.772899 45.2457488,55.5842044 44.6555764,55.5842044 C43.9092291,55.5842044 43.4338793,55.9945148 43.4338793,56.5108153 L43.4338793,56.5272759 C43.4338793,57.068468 43.729367,57.3715837 44.9916133,57.6421798 C46.2703202,57.9208054 46.8604926,58.3881256 46.8604926,59.2653547 L46.8604926,59.2814138 C46.8604926,60.2658374 46.0410764,60.9045887 44.9012808,60.9045887 C43.991532,60.9045887 43.2455862,60.6018744 42.5566502,59.9868103"/>
    <polygon fill="#000" points="49.382 60.741 50.029 60.741 50.029 55.002 49.382 55.002"/>
    <path fill="#000" d="M53.2411798,55.601468 L53.2411798,60.1429852 L54.5857291,60.1429852 C56.03667,60.1429852 56.9628793,59.1593645 56.9628793,57.8886872 L56.9628793,57.8722266 C56.9628793,56.6015493 56.03667,55.601468 54.5857291,55.601468 L53.2411798,55.601468 Z M52.5935961,55.0024631 L54.5857291,55.0024631 C56.3891675,55.0024631 57.6353547,56.2406207 57.6353547,57.855766 L57.6353547,57.8722266 C57.6353547,59.4869704 56.3891675,60.7411872 54.5857291,60.7411872 L52.5935961,60.7411872 L52.5935961,55.0024631 Z"/>
    <polyline fill="#000" points="59.82 55.002 63.968 55.002 63.968 55.593 60.468 55.593 60.468 57.552 63.599 57.552 63.599 58.143 60.468 58.143 60.468 60.151 64.009 60.151 64.009 60.741 59.82 60.741 59.82 55.002"/>
    <path fill="#000" d="M68.252436,57.9292365 C69.1132044,57.9292365 69.727867,57.4872094 69.727867,56.7492931 L69.727867,56.7328325 C69.727867,56.027436 69.1870764,55.601468 68.260867,55.601468 L66.4895468,55.601468 L66.4895468,57.9292365 L68.252436,57.9292365 Z M65.8423645,55.0024631 L68.3098473,55.0024631 C69.0148424,55.0024631 69.5805246,55.2160493 69.9414532,55.5765764 C70.2196773,55.855202 70.3838818,56.2570813 70.3838818,56.7079409 L70.3838818,56.7244015 C70.3838818,57.6755025 69.727867,58.2327537 68.8261478,58.3969581 L70.5886355,60.7411872 L69.7933079,60.7411872 L68.1291823,58.5117808 L66.4895468,58.5117808 L66.4895468,60.7411872 L65.8423645,60.7411872 L65.8423645,55.0024631 Z"/>
    <polygon fill="#000" points="75.879 60.741 76.527 60.741 76.527 55.002 75.879 55.002"/>
    <polyline fill="#000" points="80.616 55.601 78.69 55.601 78.69 55.002 83.199 55.002 83.199 55.601 81.272 55.601 81.272 60.741 80.616 60.741 80.616 55.601"/>
    <path fill="#000" d="M90.5633621 59.6017931C91.5959631 59.6017931 92.2925271 58.9052291 92.2925271 57.8886872L92.2925271 57.8722266C92.2925271 56.8556847 91.5959631 56.1422586 90.5633621 56.1422586L89.5873695 56.1422586 89.5873695 59.6017931 90.5633621 59.6017931zM88.3251232 55.0024631L90.5633621 55.0024631C92.366399 55.0024631 93.6125862 56.2406207 93.6125862 57.855766L93.6125862 57.8722266C93.6125862 59.4869704 92.366399 60.7411872 90.5633621 60.7411872L88.3251232 60.7411872 88.3251232 55.0024631zM99.9298399 57.9866478L99.9298399 57.9701872C99.9298399 56.9865665 99.2079828 56.1667488 98.1918424 56.1667488 97.1753005 56.1667488 96.4703054 56.9701059 96.4703054 57.9537266L96.4703054 57.9701872C96.4703054 58.9538079 97.1917611 59.7736256 98.2079015 59.7736256 99.2244433 59.7736256 99.9298399 58.9702685 99.9298399 57.9866478zM95.1502463 57.9866478L95.1502463 57.9701872C95.1502463 56.3385813 96.4373842 55.0024631 98.2079015 55.0024631 99.9788202 55.0024631 101.249498 56.3225222 101.249498 57.9537266L101.249498 57.9701872C101.249498 59.6013916 99.9623596 60.9375099 98.1918424 60.9375099 96.4209236 60.9375099 95.1502463 59.6178522 95.1502463 57.9866478z"/>
    <polyline fill="#000" points="103.18 55.002 104.344 55.002 107.033 58.536 107.033 55.002 108.279 55.002 108.279 60.741 107.205 60.741 104.426 57.093 104.426 60.741 103.18 60.741 103.18 55.002"/>
    <polyline fill="#000" points="110.808 55.002 115.137 55.002 115.137 56.126 112.062 56.126 112.062 57.29 114.768 57.29 114.768 58.413 112.062 58.413 112.062 59.618 115.178 59.618 115.178 60.741 110.808 60.741 110.808 55.002"/>
  </g>
</svg>
