<svg xmlns="http://www.w3.org/2000/svg" width="16" height="4" viewBox="0 0 16 4">
  <title>
    more-small
  </title>
  <path fill="#ADADAD" fill-rule="evenodd" d="M2,4 C0.8954305,4 1.3527075e-16,3.1045695 0,2 C-1.3527075e-16,0.8954305 0.8954305,2.02906125e-16 2,0 C3.1045695,6.76353751e-17 4,0.8954305 4,2 C4,3.1045695 3.1045695,4 2,4 Z M8,4 C6.8954305,4 6,3.1045695 6,2 C6,0.8954305 6.8954305,2.02906125e-16 8,0 C9.1045695,6.76353751e-17 10,0.8954305 10,2 C10,3.1045695 9.1045695,4 8,4 Z M14,4 C12.8954305,4 12,3.1045695 12,2 C12,0.8954305 12.8954305,2.02906125e-16 14,0 C15.1045695,6.76353751e-17 16,0.8954305 16,2 C16,3.1045695 15.1045695,4 14,4 Z"/>
</svg>
