<svg xmlns="http://www.w3.org/2000/svg" width="122" height="122" viewBox="0 0 122 122">
  <title>
    play
  </title>
  <path fill="#FFF" d="M113.263044,30.6956997 C118.659647,39.9450901 121.362205,50.0622256 121.362205,61 C121.362205,71.9369509 118.659596,82.0531335 113.262117,91.3043003 C107.870145,100.54245 100.541642,107.871194 91.3052273,113.26119 C82.0564988,118.659337 71.940251,121.362205 61.0009269,121.362205 C50.061964,121.362205 39.9466257,118.659515 30.6967193,113.261244 C21.4604031,107.870904 14.1315109,100.541771 8.73860915,91.3039563 C3.34075336,82.0521434 0.637795276,71.9367032 0.637795276,61 C0.637795276,50.0611385 3.34089301,39.9449341 8.73968278,30.6957923 C14.1313642,21.4571775 21.459699,14.129084 30.6976462,8.73875584 C39.9475526,3.3404846 50.062891,0.637795276 61.0018539,0.637795276 C71.9410397,0.637795276 82.0545951,3.34013728 91.3061542,8.73880991 C100.543454,14.1302861 107.871568,21.4584001 113.263044,30.6956997 Z M88.9248409,12.8191765 C80.4004416,7.8448321 71.1091715,5.36220472 61.0018539,5.36220472 C50.8947768,5.36220472 41.601798,7.84517007 33.0788008,12.8192151 C24.5441816,17.7991525 17.8012295,24.5418825 12.8199567,33.0772644 C7.8455316,41.5993898 5.36220472,50.893113 5.36220472,61 C5.36220472,71.1048811 7.84547263,80.3981617 12.8189602,88.9226164 C17.8011795,97.4569489 24.5449626,104.200954 33.0780326,109.180878 C41.6008711,114.15483 50.8938499,116.637795 61.0009269,116.637795 C71.1083381,116.637795 80.402153,114.154666 88.9238874,109.180839 C97.4570722,104.201219 104.200319,97.4577499 109.181658,88.9231457 C114.154834,80.3992245 116.637795,71.1052093 116.637795,61 C116.637795,50.8939954 114.154898,41.5991051 109.182693,33.0770396 C104.201641,24.5429866 97.4587308,17.8000981 88.9248409,12.8191765 Z M90.0771387,65.6674227 L48.6690244,90.0018243 C47.9076054,90.457301 47.0957365,90.6850394 46.2334178,90.6850394 C45.421549,90.6850394 44.6096801,90.4825016 43.7978113,90.077426 C42.1740736,89.1142048 41.3622047,87.695507 41.3622047,85.8194657 L41.3622047,37.1525291 C41.3622047,35.2774213 42.1740736,33.85779 43.7978113,32.8945689 C45.4719988,31.9817488 47.0957365,32.0069494 48.6690244,32.9701705 L90.0771387,57.3036388 C91.6999422,58.2155255 92.511811,59.6108895 92.511811,61.4859974 C92.511811,63.3611053 91.6999422,64.7546026 90.0771387,65.6674227 Z"/>
</svg>
