<svg xmlns="http://www.w3.org/2000/svg" width="70" height="70" viewBox="0 0 70 70">
  <title>
    search-inside-box
  </title>
  <path fill="#FFF" d="M40.0909091,32.5454545 C40.0909091,36.7126229 36.7125763,40.0909091 32.5453642,40.0909091 C28.378178,40.0909091 25,36.7126489 25,32.5454545 C25,28.3782602 28.378178,25 32.5453642,25 C36.7125763,25 40.0909091,28.3782862 40.0909091,32.5454545 Z M38.0909091,32.5454545 C38.0909091,29.4828618 35.608013,27 32.5453642,27 C29.4827584,27 27,29.4828188 27,32.5454545 C27,35.6080903 29.4827584,38.0909091 32.5453642,38.0909091 C35.608013,38.0909091 38.0909091,35.6080473 38.0909091,32.5454545 Z M39.388925,37.9747114 L44.7071068,43.2928932 C45.6499158,44.2357023 44.2357023,45.6499158 43.2928932,44.7071068 L37.9747114,39.388925 C37.0319024,38.4461159 38.4461159,37.0319024 39.388925,37.9747114 Z"/>
</svg>
