<svg xmlns="http://www.w3.org/2000/svg" width="24" height="24" viewBox="0 0 24 24">
  <title>
    social-twitter
  </title>
  <path fill="#555862" fill-rule="evenodd" d="M19.639738,6.52528216 C20.5280488,6.00024932 21.128823,5.25857522 21.4419047,4.30025987 C20.6294499,4.77512154 19.7623227,5.10008343 18.8402115,5.27514552 C18.0279126,4.42515079 17.0297895,4 15.8452193,4 C14.7115832,4 13.7450799,4.39369792 12.9453976,5.18124718 C12.1458711,5.96879645 11.7461858,6.92082123 11.7461858,8.03747495 C11.7461858,8.33742796 11.7799861,8.64581955 11.8477426,8.96249628 C10.172522,8.87918453 8.60103893,8.46462031 7.13313759,7.71880364 C5.66523625,6.97283354 4.41945156,5.97907617 3.39578352,4.7373781 C3.02351228,5.36229299 2.83737666,6.04152163 2.83737666,6.77491058 C2.83737666,7.46656694 3.00232864,8.10835898 3.33238838,8.69997986 C3.66229235,9.29160074 4.10652565,9.77075842 4.66493252,10.1374529 C4.00496881,10.112444 3.38737237,9.94152451 2.81214321,9.62484777 L2.81214321,9.67486551 C2.81214321,10.6499046 3.12304421,11.5060365 3.74484622,12.2437214 C4.36664823,12.9814064 5.15137733,13.4458349 6.09887773,13.6374673 C5.74358455,13.7290642 5.38393003,13.7749393 5.0202257,13.7749393 C4.78331166,13.7749393 4.52521398,13.7540731 4.24608843,13.7126473 C4.50839168,14.5209094 4.99063091,15.1854089 5.69280613,15.7062992 C6.39498135,16.2273429 7.19030226,16.495843 8.07861309,16.5127202 C6.58968388,17.6625145 4.89343541,18.2375651 2.98986768,18.2375651 C2.62600759,18.2375651 2.29610361,18.2211482 2,18.1877008 C3.90356773,19.3959514 6.00168223,20 8.29449926,20 C9.74962812,20 11.1159726,19.773079 12.3932212,19.3189302 C13.6709371,18.8647814 14.7622059,18.2564368 15.6674948,17.493743 C16.5726279,16.731356 17.3531515,15.8542044 18.0087538,14.8624416 C18.6643562,13.8708323 19.1528259,12.8354957 19.4744745,11.7562786 C19.7959673,10.676908 19.9567137,9.59584975 19.9567137,8.51233662 C19.9567137,8.27897164 19.9525082,8.10406298 19.9439412,7.98730378 C20.7478291,7.41256005 21.433182,6.71660769 22,5.90006041 C21.213246,6.23346087 20.4261805,6.44166355 19.639738,6.52528216 Z"/>
</svg>
