<svg xmlns="http://www.w3.org/2000/svg" width="50" height="50" viewBox="0 0 50 50">
  <title>
    social-facebook-large
  </title>
  <path fill="#ABAEB1" fill-rule="evenodd" d="M0,0 L50,0 L50,50 L0,50 L0,0 Z M26.9883974,21.5533113 L26.9883974,19.8300414 C26.9883974,19.5713052 26.9999041,19.3709596 27.0233491,19.2294515 C27.0466503,19.0876456 27.0995813,18.948223 27.1817107,18.8105878 C27.2636962,18.6731016 27.3965991,18.5780677 27.5801317,18.5254863 C27.7638081,18.472756 28.0080387,18.4465398 28.3128236,18.4465398 L29.9766988,18.4465398 L29.9766988,15 L27.3166272,15 C25.7773125,15 24.6719459,15.3781988 24.0000959,16.1345965 C23.3282459,16.8911431 22.9923928,18.0054816 22.9923928,19.4780588 L22.9923928,21.5533113 L21,21.5533113 L21,25 L22.9922489,25 L22.9922489,35 L26.9883974,35 L26.9883974,25 L29.648469,25 L30,21.5533113 L26.9883974,21.5533113 Z"/>
</svg>
