<svg xmlns="http://www.w3.org/2000/svg" width="24" height="24" viewBox="0 0 24 24">
  <title>
    social-linkedin
  </title>
  <path fill="#555862" d="M7.78748102,9.41039575 L7.78748102,20.7338038 L4,20.7338038 L4,9.41039575 L7.78748102,9.41039575 Z M8.2608972,5.95588802 C8.2608972,7.04314387 7.43841309,7.91312884 6.11777928,7.91312884 L6.09357523,7.91312884 C4.82203025,7.91312884 4,7.04314387 4,5.95588802 C4,4.84563507 4.84706632,4 6.14273971,4 C7.43841309,4 8.23631493,4.84563507 8.2608972,5.95588802 Z M21,14.5072033 L20.9998487,20.9996994 L17.212519,20.9996994 L17.212519,14.9416696 C17.212519,13.4200226 16.6644484,12.3816922 15.2933643,12.3816922 C14.2469927,12.3816922 13.6237382,13.0816784 13.3500054,13.7577655 C13.2498612,14.0000627 13.2252789,14.3376553 13.2252789,14.6760747 L13.2252789,21 L9.43734409,21 C9.43734409,21 9.48726499,10.739122 9.43734409,9.67659192 L13.2252789,9.67659192 L13.2252789,11.2804577 C13.7279669,10.5094508 14.6282822,9.41039575 16.6391854,9.41039575 C19.1315225,9.41039575 21,11.029142 21,14.5072033 Z"/>
</svg>
