<svg xmlns="http://www.w3.org/2000/svg" width="24" height="24" viewBox="0 0 24 24">
  <title>
    social-facebook
  </title>
  <path fill="#555862" fill-rule="evenodd" d="M13.3895576,7.34703727 C13.3895576,7.11417464 13.3999137,6.93386362 13.4210142,6.80650639 C13.4419852,6.67888104 13.4896232,6.55340066 13.5635396,6.429529 C13.6373266,6.3057914 13.7569392,6.22026097 13.9221185,6.17293771 C14.0874273,6.12548038 14.3072349,6.10188578 14.5815413,6.10188578 L16.079029,6.10188578 L16.079029,3 L13.6849645,3 C12.2995813,3 11.3047513,3.34037894 10.7000863,4.02113683 C10.0954213,4.70202878 9.79315349,5.70493342 9.79315349,7.03025293 L9.79315349,8.89798016 L8,8.89798016 L8,12 L9.79302404,12 L9.79302404,21 L13.3895576,21 L13.3895576,12 L15.7836221,12 L16.1,8.89798016 L13.3895576,8.89798016 L13.3895576,7.34703727 Z"/>
</svg>
