<svg xmlns="http://www.w3.org/2000/svg" width="50" height="50" viewBox="0 0 50 50">
  <title>
    social-twitter-large
  </title>
  <path fill="#ABAEB1" fill-rule="evenodd" d="M0,0 L50,0 L50,50 L0,50 L0,0 Z M32.639738,19.5252822 C33.5280488,19.0002493 34.128823,18.2585752 34.4419047,17.3002599 C33.6294499,17.7751215 32.7623227,18.1000834 31.8402115,18.2751455 C31.0279126,17.4251508 30.0297895,17 28.8452193,17 C27.7115832,17 26.7450799,17.3936979 25.9453976,18.1812472 C25.1458711,18.9687964 24.7461858,19.9208212 24.7461858,21.0374749 C24.7461858,21.337428 24.7799861,21.6458195 24.8477426,21.9624963 C23.172522,21.8791845 21.6010389,21.4646203 20.1331376,20.7188036 C18.6652363,19.9728335 17.4194516,18.9790762 16.3957835,17.7373781 C16.0235123,18.362293 15.8373767,19.0415216 15.8373767,19.7749106 C15.8373767,20.4665669 16.0023286,21.108359 16.3323884,21.6999799 C16.6622923,22.2916007 17.1065257,22.7707584 17.6649325,23.1374529 C17.0049688,23.112444 16.3873724,22.9415245 15.8121432,22.6248478 L15.8121432,22.6748655 C15.8121432,23.6499046 16.1230442,24.5060365 16.7448462,25.2437214 C17.3666482,25.9814064 18.1513773,26.4458349 19.0988777,26.6374673 C18.7435846,26.7290642 18.38393,26.7749393 18.0202257,26.7749393 C17.7833117,26.7749393 17.525214,26.7540731 17.2460884,26.7126473 C17.5083917,27.5209094 17.9906309,28.1854089 18.6928061,28.7062992 C19.3949813,29.2273429 20.1903023,29.495843 21.0786131,29.5127202 C19.5896839,30.6625145 17.8934354,31.2375651 15.9898677,31.2375651 C15.6260076,31.2375651 15.2961036,31.2211482 15,31.1877008 C16.9035677,32.3959514 19.0016822,33 21.2944993,33 C22.7496281,33 24.1159726,32.773079 25.3932212,32.3189302 C26.6709371,31.8647814 27.7622059,31.2564368 28.6674948,30.493743 C29.5726279,29.731356 30.3531515,28.8542044 31.0087538,27.8624416 C31.6643562,26.8708323 32.1528259,25.8354957 32.4744745,24.7562786 C32.7959673,23.676908 32.9567137,22.5958498 32.9567137,21.5123366 C32.9567137,21.2789716 32.9525082,21.104063 32.9439412,20.9873038 C33.7478291,20.4125601 34.433182,19.7166077 35,18.9000604 C34.213246,19.2334609 33.4261805,19.4416636 32.639738,19.5252822 Z"/>
</svg>
