<svg xmlns="http://www.w3.org/2000/svg" width="50" height="50" viewBox="0 0 50 50">
  <title>
    social-instagram-large
  </title>
  <path fill="#ABAEB1" fill-rule="evenodd" d="M0,0 L50,0 L50,50 L0,50 L0,0 Z M25.5,14 C22.9199479,14 22.5963952,14.01091 21.5831379,14.0571732 C20.5719627,14.1033532 19.8813837,14.2639213 19.2771687,14.4987771 C18.652383,14.741503 18.1226226,15.0663452 17.5944863,15.5944793 C17.0663499,16.1226133 16.7415063,16.6524546 16.4987376,17.2771544 C16.2638392,17.88145 16.1032704,18.5720259 16.0571318,19.5831967 C16.01091,20.5964912 16,20.9199176 16,23.4999584 C16,26.0800824 16.01091,26.4035505 16.0571318,27.4168033 C16.1032704,28.4280157 16.2638392,29.11855 16.4987376,29.7228873 C16.7415063,30.3475454 17.0663499,30.8773867 17.5944863,31.4055207 C18.1226226,31.9336548 18.652383,32.258497 19.2771687,32.5012229 C19.8813837,32.7360787 20.5719627,32.8966468 21.5831379,32.9428684 C22.5963952,32.9890484 22.9199479,33 25.5,33 C28.0800521,33 28.4036048,32.9890484 29.4168621,32.9428684 C30.4280373,32.8966468 31.1186163,32.7360787 31.7228313,32.5012229 C32.3475754,32.258497 32.8773774,31.9336548 33.4055137,31.4055207 C33.9336501,30.8773867 34.2584937,30.3475454 34.5012624,29.7228873 C34.7361608,29.11855 34.8967296,28.4280157 34.9428682,27.4168033 C34.9891316,26.4035505 35,26.0800824 35,23.4999584 C35,20.9199176 34.9891316,20.5964912 34.9428682,19.5831967 C34.8967296,18.5720259 34.7361608,17.88145 34.5012624,17.2771544 C34.2584937,16.6524546 33.9336501,16.1226133 33.4055137,15.5944793 C32.8773774,15.0663452 32.3475754,14.741503 31.7228313,14.4987771 C31.1186163,14.2639213 30.4280373,14.1033532 29.4168621,14.0571732 C28.4036048,14.01091 28.0800521,14 25.5,14 Z M25.5,15.7116573 C28.0366202,15.7116573 28.3370204,15.7213597 29.3388263,15.7670816 C30.2650533,15.8093057 30.76808,15.9641273 31.1028342,16.0942141 C31.5462722,16.2665249 31.8627876,16.4724402 32.1951683,16.8048194 C32.5276739,17.1372819 32.7335484,17.4537126 32.9058184,17.8971487 C33.0358641,18.2319015 33.1906447,18.7349676 33.2329523,19.6611489 C33.2786328,20.6629504 33.2882935,20.9633493 33.2882935,23.4999584 C33.2882935,26.0366507 33.2786328,26.3370496 33.2329523,27.3387679 C33.1906447,28.2650741 33.0358641,28.7680985 32.9058184,29.1028513 C32.7335484,29.5462041 32.5276739,29.8627181 32.1951683,30.1951806 C31.8627876,30.5276015 31.5462722,30.7334751 31.1028342,30.9058276 C30.76808,31.0358727 30.2650533,31.1906943 29.3388263,31.2328767 C28.337187,31.2786403 28.0368284,31.2882594 25.5,31.2882594 C22.9631716,31.2882594 22.662813,31.2786403 21.6611737,31.2328767 C20.7349467,31.1906943 20.23192,31.0358727 19.8971658,30.9058276 C19.4537278,30.7334751 19.1372124,30.5276015 18.8048317,30.1951806 C18.4724094,29.8627181 18.2665349,29.5462041 18.0941816,29.1028513 C17.9641359,28.7680985 17.8093136,28.2650741 17.7670477,27.3387679 C17.7213672,26.3370496 17.7116648,26.0366507 17.7116648,23.4999584 C17.7116648,20.9633493 17.7213672,20.6629504 17.7670477,19.6611489 C17.8093136,18.7349676 17.9641359,18.2319015 18.0941816,17.8971487 C18.2665349,17.4537126 18.4724094,17.1372819 18.8048317,16.8048194 C19.1372124,16.4724402 19.4537278,16.2665249 19.8971658,16.0942141 C20.23192,15.9641273 20.7349467,15.8093057 21.6611737,15.7670816 C22.6629796,15.7213597 22.9633798,15.7116573 25.5,15.7116573 Z M31,18 C31,17.4476751 30.5522966,17 29.9999817,17 C29.4477765,17 29,17.4476751 29,18 C29,18.5522519 29.4477765,19 29.9999817,19 C30.5522966,19 31,18.5522519 31,18 Z M25.0000213,18 C22.2386206,18 20,20.2386302 20,23.0000427 C20,25.7614979 22.2386206,28 25.0000213,28 C27.7614221,28 30,25.7614979 30,23.0000427 C30,20.2386302 27.7614221,18 25.0000213,18 Z M25.0000197,26 C23.3431387,26 22,24.6568613 22,23.0000197 C22,21.3431387 23.3431387,20 25.0000197,20 C26.6569007,20 28,21.3431387 28,23.0000197 C28,24.6568613 26.6569007,26 25.0000197,26"/>
</svg>
