<svg xmlns="http://www.w3.org/2000/svg" width="412" height="55" viewBox="0 0 412 55">
  <title>
    stramit-logo-with-copy
  </title>
  <g fill="none" fill-rule="evenodd">
    <path fill="#231F20" d="M171.924307,35.000327 C171.924307,33.8686737 172.837408,32.9457188 173.967327,32.9457188 C175.087392,32.9457188 176,33.8686737 176,35.000327 C176,36.1429382 175.087392,37.065395 173.967327,37.065395 C172.837408,37.065395 171.924307,36.1429382 171.924307,35.000327 Z M175.616626,35.000327 C175.616626,34.0778702 174.879936,33.3332304 173.967327,33.3332304 C173.049791,33.3332304 172.308174,34.0778702 172.308174,35.000327 C172.308174,35.9332437 173.049791,36.6773854 173.967327,36.6773854 C174.879936,36.6773854 175.616626,35.9332437 175.616626,35.000327 Z M174.97849,36.1274975 L174.476358,36.1274975 L173.988024,35.183623 L173.557836,35.183623 L173.557836,36.1274975 L173.127156,36.1274975 L173.127156,33.8995551 L174.191045,33.8995551 C174.377804,33.8995551 174.621232,33.904536 174.787295,34.0101304 C174.98391,34.1406292 175.045999,34.3558027 175.045999,34.5859188 C175.045999,34.9898672 174.833615,35.1577225 174.444328,35.183623 L174.97849,36.1274975 Z M174.2009,34.8533914 C174.444328,34.8588704 174.615319,34.8015904 174.615319,34.5176809 C174.615319,34.2297867 174.304381,34.2297867 174.091998,34.2297867 L173.557836,34.2297867 L173.557836,34.8533914 L174.2009,34.8533914 Z M18.1919215,38.8541743 C18.4777276,38.0014496 18.2939247,37.4714852 17.8538819,37.1188398 C17.413839,36.7651981 16.6663083,36.6476496 15.8162815,36.6471515 C14.558242,36.6466534 12.8305935,36.9694137 12.4220879,38.3521028 C11.9534644,39.9400036 15.5659548,40.0301573 17.729704,40.7663297 C21.5644333,42.0613554 22.4021408,44.0626683 21.6644655,46.5630642 C20.1708823,51.6221322 13.7885366,54.0019911 8.51738535,53.9999988 C2.94022446,53.9980064 -1.44147855,51.7899875 0.444841638,46.4370483 L7.68854769,46.4395387 C7.34952254,47.5866327 7.44758359,48.2929198 7.90339503,48.8223861 C8.41045445,49.2935763 9.27723533,49.3523505 10.5012738,49.3528486 C11.9638126,49.3533467 13.9570637,48.707328 14.3650765,47.324639 C14.816453,45.7955124 12.3949855,45.5883083 9.31468578,44.6165409 C6.60790501,43.762322 4.15095818,42.4080239 5.18380226,38.9079677 C6.58178825,34.1726561 12.5290188,31.998009 17.4261583,32.0000014 C22.5953063,32.0019937 26.7592054,33.6800483 25.0951241,38.8571628 L18.1919215,38.8541743 Z M36.2283061,38.2466578 L39.8669132,38.248152 L37.8554297,41.8363696 L34.2848246,41.8343772 L31.6450605,46.7455134 C31.3612255,47.2455926 31.0350123,47.775557 30.8871816,48.2756362 C30.7398436,48.7757154 30.9241393,49.1876332 31.9786652,49.1881313 C33.0666994,49.1881313 33.6619645,49.1298551 34.2148514,49.100468 L31.9530412,53.3058151 C30.7107702,53.4821379 29.443368,53.6290735 28.2015899,53.6873496 C26.7730522,53.6868516 25.2430041,53.6863535 24.133288,53.0677296 C23.1418365,52.5083781 22.8175945,51.3025099 23.1477498,50.184803 C23.390685,49.3604693 23.759769,48.802114 24.1382157,48.0963249 L27.5516274,41.8313887 L24.5590405,41.8303926 L26.5705241,38.242175 L29.4951088,38.2436693 L32.0481456,33.6264043 L38.7818356,33.6288947 L36.2283061,38.2466578 Z M41.9413234,38.2505429 L48.4705142,38.2530333 L47.1893145,40.6353826 L47.2573166,40.6353826 C48.9248473,39.0180947 51.473942,37.8719969 53.2084893,37.872495 C54.3305246,37.872993 54.959298,37.9317673 55.5190837,38.1085881 L52.7418369,43.2553194 C52.0036688,42.9903372 51.1201338,42.8722906 50.270107,42.8722906 C47.4135245,42.8702982 45.6725712,43.9287328 43.9444299,47.1349177 L40.5300326,53.5164062 L33.7963426,53.5144139 L41.9413234,38.2505429 Z M128.339765,38.2933285 L131.978372,38.2948228 L129.966889,41.8830403 L126.396284,41.8815461 L123.755534,46.7921842 C123.472684,47.2927614 123.146471,47.8222277 122.998148,48.3223069 C122.850317,48.8223861 123.035105,49.2343039 124.089631,49.234802 C125.177666,49.234802 125.773423,49.1765258 126.32631,49.1471387 L124.064007,53.352984 C122.822229,53.5293067 121.554334,53.6757442 120.313049,53.7340204 C118.884511,53.7335223 117.354463,53.7325261 116.243761,53.1144004 C115.25231,52.5550488 114.928561,51.3491806 115.259209,50.2314738 C115.501651,49.4071401 115.870735,48.8492828 116.249675,48.1429957 L119.663086,41.8785576 L116.670007,41.8775614 L118.68149,38.2893438 L121.606568,38.29034 L124.159605,33.673075 L130.892802,33.6755655 L128.339765,38.2933285 Z M77.810234,38.2685238 L84.3394248,38.2710142 L83.2730724,40.2708329 L83.3410746,40.2708329 C85.1268698,38.8303657 87.3428526,37.8899778 89.5869231,37.8904759 C91.8999814,37.8914721 93.7148501,38.539483 93.6015132,40.4222513 C95.5326753,38.8343504 97.7826591,37.8939625 100.129226,37.8949587 C103.563826,37.8964529 105.366376,39.279142 104.437013,42.4265527 C104.228572,43.1328398 103.652525,44.1618872 103.317442,44.8377911 L98.604598,53.5438508 L91.8714008,53.5413604 L95.8273513,46.2473768 C95.9820808,45.9535056 96.7650909,44.4537661 96.8946892,44.0124612 C97.1819736,43.0416899 96.6832912,42.5411127 95.5947643,42.5411127 C94.2682298,42.5406146 93.1250054,43.1871313 92.5233343,44.3048381 L87.4852629,53.539368 L80.7515728,53.5363795 L85.2057129,45.3602841 C85.4200675,44.9787496 85.7723974,44.3601258 85.8941114,43.9487061 C86.1804102,42.9784329 85.6989748,42.5366299 84.6109406,42.5361318 C82.9443954,42.5356337 81.8164469,43.4770178 81.1196714,44.7999365 L76.3644494,53.5348853 L69.6312521,53.5323948 L77.810234,38.2685238 Z M110.385969,38.2850603 L117.119166,38.2875507 L108.940677,53.5514217 L102.206987,53.5489313 L110.385969,38.2850603 Z M117.979541,36.6403776 L111.246343,36.637389 L113.439166,32.5495904 L120.172363,32.5520808 L117.979541,36.6403776 Z M54.2439451,42.8753787 C56.4963927,38.8169672 60.4129217,37.8770774 64.7315502,37.8785716 C67.9281435,37.8800659 73.1973237,38.2352018 72.1033762,41.9409678 C71.3997019,44.3228191 67.2348173,51.1759958 66.9396486,52.1761542 C66.7282507,53.3526353 66.7484542,52.823169 66.8120214,53.5294561 L60.2148285,53.5264676 C60.183784,53.0552775 60.2296115,52.5556964 60.4109506,52.0556172 L60.3429484,52.0556172 C58.7882619,53.2903744 56.3273729,53.9070059 54.3548181,53.9060098 C51.3282302,53.9055117 48.9801853,52.7574215 49.8400674,49.8451078 C51.0291193,45.8150872 54.8194994,44.7287598 59.9817487,44.4064977 C61.9207952,44.2904434 64.8779026,44.5265366 65.4337462,42.6442664 C65.7461618,41.5853338 64.7359851,41.3203516 63.7159531,41.3198535 C62.3554175,41.3193555 61.2821664,41.7307752 60.5691295,42.8778692 L54.2439451,42.8753787 Z M58.5330075,50.465724 C60.8115719,50.4667202 62.1553533,49.0267511 63.2320538,46.7619503 C62.0050587,47.2321443 60.7115397,47.3486966 59.4618773,47.4363599 C58.3132324,47.5245212 57.1113686,48.0241023 56.781706,49.1418092 C56.4692904,50.2012399 57.4449733,50.465724 58.5330075,50.465724 Z"/>
    <path fill="#171616" d="M224,43.527219 L224,43.4960625 C224,40.4738752 226.095408,37.9969279 229.076718,37.9969279 C230.890174,37.9969279 231.98754,38.6806415 232.929512,39.6534189 L231.817729,41.0364244 C231.03115,40.2453937 230.186899,39.7140011 229.0623,39.7140011 C227.178355,39.7140011 225.813457,41.3843394 225.813457,43.4666368 L225.813457,43.4960625 C225.813457,45.5783599 227.178355,47.2798547 229.0623,47.2798547 C230.271805,47.2798547 231.045568,46.7484621 231.888216,45.8968492 L233,47.1136864 C231.973122,48.2682104 230.848523,48.9969279 229.00623,48.9969279 C226.137059,48.9969279 224,46.5822938 224,43.527219 Z M237,43.527219 L237,43.4960625 C237,40.5033008 239.283891,37.9969279 242.514553,37.9969279 C245.746926,37.9969279 248,40.4738752 248,43.4666368 L248,43.4960625 C248,46.490555 245.716109,48.9969279 242.485447,48.9969279 C239.254786,48.9969279 237,46.5199806 237,43.527219 Z M246.061946,43.527219 L246.061946,43.4960625 C246.061946,41.4293433 244.574163,39.7140011 242.485447,39.7140011 C240.396732,39.7140011 238.938054,41.3999177 238.938054,43.4666368 L238.938054,43.4960625 C238.938054,45.5645125 240.425837,47.2798547 242.514553,47.2798547 C244.604981,47.2798547 246.061946,45.5939381 246.061946,43.527219 Z M253,38.9969279 L254.682667,38.9969279 L260.214793,45.9098653 L260.214793,38.9969279 L262,38.9969279 L262,48.9969279 L260.480388,48.9969279 L254.785207,41.8822005 L254.785207,48.9969279 L253,48.9969279 L253,38.9969279 Z M267.363636,47.4415482 L268.357178,46.2184469 C269.255952,47.0254089 270.154725,47.4826874 271.32099,47.4826874 C272.342046,47.4826874 272.985555,46.9969279 272.985555,46.2611684 L272.985555,46.2326874 C272.985555,45.5396494 272.609538,45.1646494 270.86549,44.7469279 C268.866178,44.2469279 267.739654,43.6361684 267.739654,41.8450292 L267.739654,41.8165482 C267.739654,40.1504089 269.080171,38.9969279 270.946502,38.9969279 C272.314532,38.9969279 273.401315,39.4273077 274.353586,40.2200292 L273.46857,41.5111684 C272.623295,40.8576874 271.77802,40.5111684 270.918988,40.5111684 C269.95296,40.5111684 269.390462,41.0254089 269.390462,41.6646494 L269.390462,41.6915482 C269.390462,42.4415482 269.819978,42.7754089 271.617525,43.2200292 C273.60308,43.7200292 274.636364,44.4557887 274.636364,46.0665482 L274.636364,46.0950292 C274.636364,47.9146494 273.254576,48.9969279 271.281249,48.9969279 C269.845963,48.9969279 268.491689,48.4826874 267.363636,47.4415482 Z M280,48.9969279 L280,38.9969279 L282,38.9969279 L282,48.9969279 L280,48.9969279 Z M287,38.9969279 L290.710455,38.9969279 C293.837862,38.9969279 296,41.1535034 296,43.9692586 L296,43.9969279 C296,46.8110555 293.837862,48.9969279 290.710455,48.9969279 L287,48.9969279 L287,38.9969279 Z M290.710455,47.396993 C292.799712,47.396993 294.165017,45.982605 294.165017,44.0245972 L294.165017,43.9969279 C294.165017,42.0389201 292.799712,40.5968628 290.710455,40.5968628 L288.749145,40.5968628 L288.749145,47.396993 L290.710455,47.396993 Z M301,38.9969279 L308.925201,38.9969279 L308.925201,40.5673103 L302.878669,40.5673103 L302.878669,43.1677985 L308.238095,43.1677985 L308.238095,44.738181 L302.878669,44.738181 L302.878669,47.4249181 L309,47.4249181 L309,48.9969279 L301,48.9969279 L301,38.9969279 Z M314,38.9969279 L318.727848,38.9969279 C320.060414,38.9969279 321.106444,39.3679613 321.788262,39.9961142 C322.349252,40.5396456 322.666858,41.2817123 322.666858,42.1539662 L322.666858,42.1832583 C322.666858,43.8252436 321.622555,44.8097839 320.136364,45.2101094 L323,48.9969279 L320.802647,48.9969279 L318.197929,45.5095398 L315.864212,45.5095398 L315.864212,48.9969279 L314,48.9969279 L314,38.9969279 Z M318.591484,43.9538034 C319.924051,43.9538034 320.773303,43.2963583 320.773303,42.282526 L320.773303,42.2532339 C320.773303,41.1824446 319.955121,40.5966024 318.575949,40.5966024 L315.864212,40.5966024 L315.864212,43.9538034 L318.591484,43.9538034 Z M335,48.9969279 L335,38.9969279 L337,38.9969279 L337,48.9969279 L335,48.9969279 Z M345.127156,40.6258946 L342,40.6258946 L342,38.9969279 L350,38.9969279 L350,40.6258946 L346.874448,40.6258946 L346.874448,48.9969279 L345.127156,48.9969279 L345.127156,40.6258946 Z M362,38.9969279 L366.060305,38.9969279 C369.819085,38.9969279 372,41.0538848 372,43.9391574 L372,43.9684495 C372,46.8537221 369.789961,48.9969279 366.000343,48.9969279 L362,48.9969279 L362,38.9969279 Z M366.104848,46.5396456 C367.848895,46.5396456 369.007024,45.6250809 369.007024,44.0123876 L369.007024,43.9830955 C369.007024,42.3817937 367.848895,41.4542103 366.104848,41.4542103 L364.917595,41.4542103 L364.917595,46.5396456 L366.104848,46.5396456 Z M376,44.0273823 L376,43.9992176 C376,41.2390862 378.149872,39 381.012842,39 C383.878834,39 386,41.2124863 386,43.9726177 L386,43.9992176 C386,46.7609138 383.851639,49 380.987158,49 C378.122677,49 376,46.7890784 376,44.0273823 Z M383.5,44.0271248 L383.5,44 C383.5,42.6648583 382.477345,41.5 380.97926,41.5 C379.493937,41.5 378.5,42.6377336 378.5,43.9743822 L378.5,44 C378.5,45.3366486 379.522655,46.5 381.006382,46.5 C382.506063,46.5 383.5,45.3622664 383.5,44.0271248 Z M390,38.9969279 L392.738239,38.9969279 L397.094606,44.282526 L397.094606,38.9969279 L400,38.9969279 L400,48.9969279 L397.427193,48.9969279 L392.905394,43.5111671 L392.905394,48.9969279 L390,48.9969279 L390,38.9969279 Z M404,38.9969279 L411.929402,38.9969279 L411.929402,41.3533152 L406.705174,41.3533152 L406.705174,42.8667408 L411.438428,42.8667408 L411.438428,45.0538848 L406.705174,45.0538848 L406.705174,46.6389133 L412,46.6389133 L412,48.9969279 L404,48.9969279 L404,38.9969279 Z M199.032,55 L199.032,26 L200.968,26 L200.968,55 L199.032,55 Z"/>
    <path fill="#EF3E33" d="M127.412457,3.8228344 C129.690436,-0.166923919 138.170209,-2.45216552 142.377973,4.26729704 L158.102161,29.3672967 C163.120092,37.3785253 170.793621,32.4720937 173,29.1314391 L161.106936,50.3685282 C158.595519,54.7487398 149.874953,55.9815414 145.77459,49.4345125 L130.644294,25.2824026 C124.654851,15.7197665 116.443336,23.8662663 116,24.8736158 L127.412457,3.8228344 Z"/>
  </g>
</svg>
